<?xml version="1.0" standalone="no"?>
<!DOCTYPE svg PUBLIC "-//W3C//DTD SVG 20010904//EN"
 "http://www.w3.org/TR/2001/REC-SVG-20010904/DTD/svg10.dtd">
<svg version="1.0" xmlns="http://www.w3.org/2000/svg"
 width="512.000000pt" height="512.000000pt" viewBox="0 0 512.000000 512.000000"
 preserveAspectRatio="xMidYMid meet">
<metadata>
Created by potrace 1.14, written by Peter Selinger 2001-2017
</metadata>
<g transform="translate(0.000000,512.000000) scale(0.100000,-0.100000)"
fill="#000000" stroke="none">
<path d="M3593 5105 c-134 -31 -253 -126 -316 -252 -45 -88 -88 -240 -103
-358 -11 -91 -14 -116 -19 -175 -9 -114 -14 -210 -20 -420 -8 -246 -9 -255
-29 -305 -49 -116 -129 -166 -291 -180 -38 -3 -90 -8 -115 -10 -25 -3 -67 -7
-95 -9 -95 -10 -250 -27 -275 -31 -80 -14 -156 -16 -201 -5 -115 28 -215 156
-212 270 3 84 15 396 18 450 6 94 5 383 -1 465 -6 89 -36 209 -69 279 -33 69
-109 147 -176 181 -149 76 -413 93 -584 38 -206 -66 -340 -241 -370 -483 -5
-44 -8 -79 -21 -300 -3 -58 -7 -121 -9 -140 -27 -276 -27 -1762 0 -2430 10
-250 15 -368 19 -430 3 -36 7 -128 11 -205 3 -77 7 -167 9 -200 3 -33 7 -112
11 -175 14 -247 59 -364 190 -496 133 -133 269 -186 465 -180 88 2 117 8 181
33 147 58 263 159 332 291 67 127 82 228 66 437 -4 55 -10 136 -13 180 -3 44
-9 134 -12 200 -3 66 -7 145 -9 175 -6 101 -18 464 -17 513 2 95 67 193 157
237 40 19 339 71 495 85 19 2 71 7 115 12 193 20 263 5 340 -72 31 -32 83
-115 70 -115 -2 0 -1 -10 4 -22 5 -13 11 -120 15 -238 7 -225 13 -367 21 -510
3 -47 7 -134 10 -195 3 -60 8 -137 10 -170 3 -33 7 -109 11 -170 8 -156 28
-247 76 -345 96 -199 297 -320 533 -321 183 0 328 53 446 164 82 77 123 141
160 254 23 66 23 81 29 593 7 668 5 2380 -3 2485 -4 44 -9 132 -12 195 -3 63
-7 135 -10 160 -2 25 -7 79 -10 120 -31 401 -91 692 -180 875 -77 159 -165
233 -300 254 -84 13 -260 11 -322 -4z"/>
</g>
</svg>
